#!OML:ASF Y:\EmotionMaleHayes\Project 1\Capture day 1\Session 1\Male1.ASF
:FULLY-SPECIFIED
:DEGREES
196
root -28.3197 16.6523 0.161005 188.413 39.6964 186.433
lowerback 11.2313 1.88934 7.43228
upperback 4.05262 3.60511 0.364055
thorax -1.61165 1.97062 -4.23445
lowerneck -20.3614 2.12662 6.43163
upperneck 35.8506 5.60661 -6.61819
head 16.7808 2.92854 -2.74068
rclavicle -4.42296e-015 2.89232e-014
rhumerus -30.3664 27.3094 -97.3568
rradius 58.8364
rwrist -6.09496
rhand -14.52 -26.9487
rfingers 7.12502
rthumb 11.6276 -56.6061
lclavicle -4.42296e-015 2.89232e-014
lhumerus -44.1407 -8.18752 80.2752
lradius 27.0357
lwrist 6.92051
lhand -29.8596 -21.3599
lfingers 7.12502
lthumb -3.18186 8.59612
rfemur 14.3099 -7.84086 18.5432
rtibia 4.45436
rfoot -25.4965 -6.7116
rtoes -28.2642
lfemur -29.9348 8.254 -1.16295
ltibia 33.6443
lfoot -11.892 -2.10526
ltoes -8.01832
197
root -28.2855 16.6119 0.111607 188.4 39.166 186.541
lowerback 11.3628 2.03491 7.1842
upperback 4.05182 3.7789 0.219064
thorax -1.66946 2.05449 -4.27387
lowerneck -20.2317 1.92679 6.69841
upperneck 35.9516 5.26408 -6.6522
head 16.7751 2.83723 -2.87405
rclavicle 9.82493e-014 -1.74558e-014
rhumerus -29.8812 28.2274 -97.1266
rradius 60.1242
rwrist -5.09297
rhand -13.6789 -26.806
rfingers 7.12502
rthumb 12.4387 -56.4159
lclavicle 9.82493e-014 -1.74558e-014
lhumerus -44.8719 -7.77126 78.9921
lradius 27.2096
lwrist 6.62239
lhand -29.9607 -21.3888
lfingers 7.12502
lthumb -3.27954 8.56576
rfemur 15.0481 -8.31291 18.4991
rtibia 3.91874
rfoot -25.6438 -6.17412
rtoes -27.2156
lfemur -30.1818 8.25856 -0.116452
ltibia 33.3133
lfoot -11.8726 -1.02547
ltoes -9.51644
198
root -28.2481 16.565 0.046774 188.537 38.9391 186.843
lowerback 11.3521 2.21171 7.02523
upperback 4.07696 3.99292 0.13099
thorax -1.6156 2.16397 -4.29847
lowerneck -20.0136 1.78551 6.83893
upperneck 35.8979 5.01872 -6.65154
head 16.6708 2.76601 -2.94626
rclavicle -5.94615e-014 1.37658e-014
rhumerus -29.1582 29.5521 -96.7586
rradius 61.1253
rwrist -4.38303
rhand -13.5065 -25.9543
rfingers 7.12502
rthumb 12.6049 -55.554
lclavicle -5.94615e-014 1.37658e-014
lhumerus -45.5595 -6.79813 77.3521
lradius 27.2786
lwrist 6.10065
lhand -29.0638 -21.9731
lfingers 7.12502
lthumb -2.4133 7.99298
rfemur 15.6864 -8.4873 18.5791
rtibia 3.47963
rfoot -25.8773 -5.75589
rtoes -27.0772
lfemur -30.2391 8.52618 1.15989
ltibia 32.9376
lfoot -11.868 -0.101008
ltoes -6.99374
199
root -28.2147 16.5138 -0.0182878 188.924 38.591 187.793
lowerback 11.5817 2.28712 7.46483
upperback 4.11955 4.17184 0.155998
thorax -1.64261 2.26132 -4.54983
lowerneck -19.8815 1.6554 6.83386
upperneck 35.856 4.75333 -6.45462
head 16.5803 2.68802 -2.90871
rclavicle -3.73218e-014 -3.97569e-016
rhumerus -28.2353 31.0132 -96.3457
rradius 61.9246
rwrist -4.06647
rhand -14.5101 -25.4069
rfingers 7.12502
rthumb 11.6372 -55.0637
lclavicle -3.73218e-014 -3.97569e-016
lhumerus -46.3491 -6.29188 76.0589
lradius 27.5183
lwrist 6.50468
lhand -28.2387 -22.3181
lfingers 7.12502
lthumb -1.61644 7.65554
rfemur 16.3732 -8.52391 19.3765
rtibia 3.20123
rfoot -26.1425 -5.77961
rtoes -27.3176
lfemur -30.2631 8.94702 3.0293
ltibia 32.7278
lfoot -11.8434 0.559842
ltoes -2.78972
200
root -28.1817 16.4572 -0.0831885 189.512 38.2197 188.97
lowerback 11.7293 2.41786 8.03905
upperback 4.16605 4.43845 0.267716
thorax -1.60216 2.40645 -4.78924
lowerneck -19.8509 1.46572 6.64084
upperneck 35.9034 4.40311 -6.07328
head 16.5421 2.57576 -2.77375
rclavicle 2.04251e-014 -1.8487e-014
rhumerus -27.3935 32.129 -95.7004
rradius 62.9567
rwrist -3.53837
rhand -15.2898 -25.6655
rfingers 7.12502
rthumb 10.8853 -55.3634
lclavicle 2.04251e-014 -1.8487e-014
lhumerus -47.1268 -6.24442 75.2209
lradius 27.9807
lwrist 7.22188
lhand -28.0945 -21.5331
lfingers 7.12502
lthumb -1.47719 8.44155
rfemur 16.926 -9.11988 20.1328
rtibia 3.07153
rfoot -26.2821 -5.38151
rtoes -27.8263
lfemur -30.2321 9.39412 5.11637
ltibia 32.3227
lfoot -11.8816 1.34102
ltoes -0.778013
201
root -28.1507 16.397 -0.151357 190.093 37.8847 190.036
lowerback 11.8257 2.56641 8.42772
upperback 4.15939 4.70298 0.421432
thorax -1.6054 2.54318 -4.87935
lowerneck -19.6081 1.29087 6.40759
upperneck 35.8628 4.0922 -5.66241
head 16.4118 2.48207 -2.60858
rclavicle 1.07344e-014 3.53837e-014
rhumerus -26.6285 33.0311 -94.8336
rradius 63.9576
rwrist -2.79792
rhand -15.5601 -25.3216
rfingers 7.12502
rthumb 10.6245 -55.033
lclavicle 1.07344e-014 3.53837e-014
lhumerus -47.8589 -5.82169 74.25
lradius 28.2052
lwrist 7.51671
lhand -28.0063 -20.9245
lfingers 7.12502
lthumb -1.39198 9.0507
rfemur 17.4096 -10.1686 20.4958
rtibia 2.98009
rfoot -26.3378 -4.46201
rtoes -28.3436
lfemur -30.3127 9.94841 7.028
ltibia 32.1483
lfoot -12.1021 2.16812
ltoes -1.76541
202
root -28.1272 16.3354 -0.224286 190.504 37.4593 190.849
lowerback 12.0051 2.60988 8.66969
upperback 4.10974 4.8191 0.550931
thorax -1.72971 2.59669 -4.90596
lowerneck -19.2234 1.1405 6.17206
upperneck 35.7277 3.84887 -5.3292
head 16.2111 2.40433 -2.4634
rclavicle -2.54444e-014 -2.52457e-014
rhumerus -26.1434 34.094 -94.009
rradius 64.8782
rwrist -2.36729
rhand -15.8704 -24.6596
rfingers 7.12502
rthumb 10.3251 -54.3862
lclavicle -2.54444e-014 -2.52457e-014
lhumerus -48.6653 -5.11528 73.2318
lradius 28.2678
lwrist 7.69307
lhand -27.7922 -21.6537
lfingers 7.12502
lthumb -1.18525 8.32275
rfemur 17.8868 -11.1528 20.6434
rtibia 2.98524
rfoot -26.5466 -3.6996
rtoes -28.9075
lfemur -30.5822 10.0349 8.66005
ltibia 32.2003
lfoot -12.3205 3.37427
ltoes -3.93815
203
root -28.1079 16.2768 -0.295211 191.451 37.1253 192.493
lowerback 12.2625 2.69055 9.62279
upperback 4.07835 5.09468 0.79652
thorax -1.79882 2.74085 -5.22651
lowerneck -19.124 0.967611 5.96141
upperneck 35.6903 3.54009 -4.99531
head 16.1277 2.29684 -2.33792
rclavicle -1.03865e-013 3.65764e-014
rhumerus -25.7851 35.0573 -93.1149
rradius 65.9689
rwrist -2.13337
rhand -16.3667 -24.8383
rfingers 7.12502
rthumb 9.84635 -54.5881
lclavicle -1.03865e-013 3.65764e-014
lhumerus -49.3261 -4.61909 72.358
lradius 28.4595
lwrist 8.25239
lhand -27.5289 -24.0644
lfingers 7.12502
lthumb -0.930929 5.91334
rfemur 18.1302 -11.7661 21.7703
rtibia 3.2409
rfoot -26.9757 -3.52039
rtoes -30.5267
lfemur -30.7593 10.5796 11.0636
ltibia 32.2651
lfoot -12.3087 4.37041
ltoes -4.08725
204
root -28.0883 16.2137 -0.372906 192.221 36.7948 193.862
lowerback 12.4352 2.84656 10.446
upperback 4.1209 5.44526 0.940629
thorax -1.72639 2.9334 -5.57733
lowerneck -19.3043 0.817231 5.97832
upperneck 35.7367 3.18005 -4.71862
head 16.1589 2.18637 -2.28974
rclavicle 3.12092e-014 -4.53229e-014
rhumerus -24.9376 35.581 -91.9036
rradius 66.7969
rwrist -2.03366
rhand -16.6684 -25.1195
rfingers 7.12502
rthumb 9.55526 -54.8828
lclavicle 3.12092e-014 -4.53229e-014
lhumerus -49.6413 -4.22363 71.4462
lradius 28.5903
lwrist 9.05286
lhand -27.4757 -25.2356
lfingers 7.12502
lthumb -0.879508 4.74229
rfemur 18.3644 -12.2513 22.6967
rtibia 3.57919
rfoot -27.4747 -3.52918
rtoes -31.8693
lfemur -30.8758 11.0843 13.1656
ltibia 32.3014
lfoot -12.2767 5.02431
ltoes -2.72068
205
root -28.0674 16.1504 -0.457418 192.83 36.5336 194.825
lowerback 12.4516 3.01874 10.937
upperback 4.17058 5.74798 0.997161
thorax -1.58632 3.10243 -5.81647
lowerneck -19.4621 0.73979 6.11141
upperneck 35.7722 2.92106 -4.52178
head 16.1926 2.12336 -2.27757
rclavicle -4.97956e-014 -4.53229e-014
rhumerus -23.7287 36.0298 -90.6211
rradius 67.198
rwrist -2.24873
rhand -17.0538 -25.2378
rfingers 7.12502
rthumb 9.18342 -55.0178
lclavicle -4.97956e-014 -4.53229e-014
lhumerus -49.8433 -3.58451 70.4125
lradius 28.5825
lwrist 9.67295
lhand -28.2228 -21.3693
lfingers 7.12502
lthumb -1.60108 8.60439
rfemur 18.5081 -12.6752 23.2333
rtibia 3.92869
rfoot -27.8677 -3.27664
rtoes -32.294
lfemur -31.0075 11.4488 14.8481
ltibia 32.3165
lfoot -12.2627 5.59593
ltoes -2.64334
206
root -28.0476 16.0896 -0.543235 193.83 35.889 196.861
lowerback 12.7301 2.9354 12.2861
upperback 4.21275 5.89919 1.41911
thorax -1.5707 3.20439 -6.14757
lowerneck -19.4885 0.637972 5.95573
upperneck 35.813 2.73248 -4.26302
head 16.1971 2.06322 -2.17288
rclavicle 7.35503e-015 3.02153e-014
rhumerus -22.8758 36.8291 -89.3669
rradius 67.6884
rwrist -2.52349
rhand -17.3682 -25.3771
rfingers 7.12502
rthumb 8.88 -55.1702
lclavicle 7.35503e-015 3.02153e-014
lhumerus -50.2664 -2.5796 69.4386
lradius 28.5979
lwrist 10.426
lhand -28.0369 -21.8504
lfingers 7.12502
lthumb -1.42156 8.12458
rfemur 18.8362 -13.1452 24.9286
rtibia 4.22184
rfoot -28.1752 -3.1788
rtoes -32.2639
lfemur -31.1106 11.8341 17.5579
ltibia 32.563
lfoot -12.1118 6.0271
ltoes -3.89614
207
root -28.0327 16.0316 -0.642639 194.828 35.5254 198.262
lowerback 12.4558 3.00415 13.1664
upperback 4.30489 6.08233 1.61117
thorax -1.2124 3.33907 -6.40937
lowerneck -19.6059 0.425243 5.79683
upperneck 35.7639 2.3155 -3.97145
head 16.1621 1.90066 -2.09846
rclavicle 2.38542e-015 3.69739e-014
rhumerus -22.0836 37.4303 -87.9993
rradius 68.3714
rwrist -2.58659
rhand -17.3522 -25.5498
rfingers 7.12502
rthumb 8.89553 -55.3422
lclavicle 2.38542e-015 3.69739e-014
lhumerus -50.4879 -1.46422 68.3696
lradius 28.7133
lwrist 11.5663
lhand -27.6116 -22.0596
lfingers 7.12502
lthumb -1.0108 7.91775
rfemur 18.7583 -13.5794 25.9377
rtibia 4.67328
rfoot -28.4399 -2.70968
rtoes -31.5567
lfemur -31.4238 12.3799 19.5241
ltibia 32.9382
lfoot -11.92 6.4956
ltoes -4.4778
208
root -28.0206 15.9835 -0.742196 195.388 35.0624 199.286
lowerback 12.6044 3.02382 13.8764
upperback 4.32765 6.23933 1.65368
thorax -1.16128 3.43617 -6.7758
lowerneck -19.7849 0.105488 5.84749
upperneck 35.9402 1.71029 -3.71773
head 16.2475 1.6996 -2.1153
rclavicle -3.24019e-014 -5.20816e-014
rhumerus -21.5163 37.5401 -86.868
rradius 68.8575
rwrist -2.53144
rhand -17.2187 -26.02
rfingers 7.12502
rthumb 9.02432 -55.807
lclavicle -3.24019e-014 -5.20816e-014
lhumerus -50.7965 -0.683607 67.3516
lradius 29.0134
lwrist 12.6343
lhand -27.6743 -21.8834
lfingers 7.12502
lthumb -1.07131 8.09369
rfemur 18.9807 -13.0984 27.1232
rtibia 4.69108
rfoot -28.598 -3.34528
rtoes -30.937
lfemur -31.665 12.5784 21.0688
ltibia 33.3962
lfoot -11.6552 6.38566
ltoes -3.42559
209
root -28.0093 15.9406 -0.845963 195.545 34.7152 199.597
lowerback 12.718 3.0318 13.7249
upperback 4.42517 6.26494 1.77791
thorax -1.14721 3.45948 -6.56907
lowerneck -20.0958 -0.122005 5.55687
upperneck 36.1703 1.37327 -3.46578
head 16.4116 1.56084 -2.02263
rclavicle 8.20981e-014 2.3059e-014
rhumerus -20.7518 38.1641 -85.335
rradius 69.1408
rwrist -2.94533
rhand -17.2135 -26.5309
rfingers 7.12502
rthumb 9.02932 -56.3176
lclavicle 8.20981e-014 2.3059e-014
lhumerus -51.2161 0.283613 66.8541
lradius 29.4357
lwrist 13.9265
lhand -28.2452 -21.3906
lfingers 7.12502
lthumb -1.62269 8.58299
rfemur 19.2089 -13.1625 27.2886
rtibia 4.89943
rfoot -28.7467 -3.74044
rtoes -31.4765
lfemur -31.847 12.4164 21.8918
ltibia 33.7639
lfoot -11.4014 6.04094
ltoes -1.02955
210
root -27.9915 15.9017 -0.957367 195.613 34.5174 199.769
lowerback 12.9033 3.17414 13.6456
upperback 4.49213 6.4739 1.70609
thorax -1.13311 3.57087 -6.63375
lowerneck -20.343 -0.371717 5.44166
upperneck 36.2686 0.885769 -3.13848
head 16.4877 1.39115 -1.95562
rclavicle -6.69904e-014 1.27222e-014
rhumerus -20.2123 38.3178 -83.9808
rradius 69.3728
rwrist -3.61415
rhand -17.4851 -26.7622
rfingers 7.12502
rthumb 8.76726 -56.5601
lclavicle -6.69904e-014 1.27222e-014
lhumerus -51.3371 0.732462 66.3388
lradius 29.83
lwrist 15.7213
lhand -28.2072 -21.1474
lfingers 7.12502
lthumb -1.58605 8.82645
rfemur 19.4551 -13.0426 27.3416
rtibia 5.10941
rfoot -28.9895 -4.4722
rtoes -33.104
lfemur -31.8267 12.3049 22.5207
ltibia 34.0961
lfoot -11.0771 5.74635
ltoes 0.266321
